<svg xmlns="http://www.w3.org/2000/svg" viewBox="0 0 220 160" role="img" aria-label="中国大学生计算机设计大赛标识">
  <defs>
    <linearGradient id="p1" x1="0" x2="1" y1="0" y2="1">
      <stop offset="0" stop-color="#c73d76"/>
      <stop offset="1" stop-color="#f19b45"/>
    </linearGradient>
    <linearGradient id="p2" x1="0" x2="1" y1="0" y2="1">
      <stop offset="0" stop-color="#d53d65"/>
      <stop offset="1" stop-color="#f0c44f"/>
    </linearGradient>
    <linearGradient id="p3" x1="0" x2="1" y1="0" y2="1">
      <stop offset="0" stop-color="#f7d64e"/>
      <stop offset="1" stop-color="#8dc16b"/>
    </linearGradient>
    <linearGradient id="p4" x1="0" x2="1" y1="0" y2="1">
      <stop offset="0" stop-color="#2f9f84"/>
      <stop offset="1" stop-color="#2f6f90"/>
    </linearGradient>
    <filter id="shadow" x="-20%" y="-20%" width="140%" height="140%">
      <feDropShadow dx="0" dy="5" stdDeviation="5" flood-color="#17324d" flood-opacity=".18"/>
    </filter>
  </defs>
  <g filter="url(#shadow)" transform="translate(14 8)">
    <path fill="url(#p1)" d="M91 55C55 58 30 47 12 24 35 6 63 0 92 11c2 15 2 30-1 44Z"/>
    <path fill="url(#p2)" d="M96 53C89 20 96 4 122 0c25 16 38 39 38 69-22 0-43-5-64-16Z"/>
    <path fill="url(#p3)" d="M104 64c27-14 56-14 86 0-4 28-20 50-46 66-15-20-29-41-40-66Z"/>
    <path fill="url(#p4)" d="M94 70c-2 26-10 50-25 73-29-7-49-23-60-49 24-15 52-23 85-24Z"/>
    <path fill="#f7d75b" d="M80 61c8-23 25-39 51-49 8 25 3 48-15 69-12-8-24-15-36-20Z"/>
    <path fill="#ffffff" d="M78 58c26 9 45 28 56 58-32 8-62 1-90-21 9-16 20-28 34-37Z" opacity=".92"/>
    <path fill="#e7b83f" d="M87 69c13-3 25 0 36 9-13 7-26 9-39 5-1-5 0-9 3-14Z"/>
    <text x="77" y="101" fill="#95a34e" font-family="Arial, sans-serif" font-size="18" font-weight="700">2009</text>
  </g>
</svg>
